<?xml version="1.0" encoding="UTF-8" standalone="no"?>
<svg
   xmlns:dc="http://purl.org/dc/elements/1.1/"
   xmlns:cc="http://creativecommons.org/ns#"
   xmlns:rdf="http://www.w3.org/1999/02/22-rdf-syntax-ns#"
   xmlns:svg="http://www.w3.org/2000/svg"
   xmlns="http://www.w3.org/2000/svg"
   xmlns:sodipodi="http://sodipodi.sourceforge.net/DTD/sodipodi-0.dtd"
   xmlns:inkscape="http://www.inkscape.org/namespaces/inkscape"
   id="Layer_1_xA0_Image_1_"
   xml:space="preserve"
   viewBox="0 0 230 230"
   version="1.1"
   y="0px"
   x="0px"
   inkscape:version="0.48.2 r9819"
   width="100%"
   height="100%"
   sodipodi:docname="heart_icon.svg"
   inkscape:export-filename="E:\projects\current\wizard-life\Assets\heart_icon.png"
   inkscape:export-xdpi="25.043478"
   inkscape:export-ydpi="25.043478"><defs
   id="defs71">
	
	
	
	
	
	
	
	
	
	
	
	
	
	
	
	
	
	
	
	
	
	
	
	
	
	
	
	
	
	
	
</defs><sodipodi:namedview
   pagecolor="#ffffff"
   bordercolor="#666666"
   borderopacity="1"
   objecttolerance="10"
   gridtolerance="10"
   guidetolerance="10"
   inkscape:pageopacity="0"
   inkscape:pageshadow="2"
   inkscape:window-width="1440"
   inkscape:window-height="878"
   id="namedview69"
   showgrid="false"
   inkscape:zoom="1.0172414"
   inkscape:cx="-100.90422"
   inkscape:cy="116"
   inkscape:window-x="-8"
   inkscape:window-y="-8"
   inkscape:window-maximized="1"
   inkscape:current-layer="Layer_1_xA0_Image_1_" />
<rect
   style="fill:#808080;fill-opacity:1;stroke:none"
   id="rect3105"
   width="230"
   height="230"
   x="0"
   y="0" /><g
   id="g3079"
   transform="translate(47.313096,26.494105)"><path
     d="m 114.55,0 c -0.238,6.685 5.896,11.529 13.05,13.05 -3.338,4.336 -12.53,-2.632 -13.05,-6.525 -2.283,-0.813 -1.642,-0.065 -4.35,0 0.87,-2.753 2.73,-4.52 4.35,-6.525 z"
     id="path5"
     inkscape:connector-curvature="0"
     style="fill-rule:evenodd" /><path
     d="m 127.6,8.7 c -6.878,0.595 -9.943,-2.623 -10.875,-7.975 5.21,-1.677 11.36,1.589 10.88,7.975 z"
     id="path7"
     inkscape:connector-curvature="0"
     style="fill-rule:evenodd" /><path
     d="m 130.5,7.25 c 1.509,0.425 2.343,1.523 3.625,2.175 -1.534,0.882 -2.105,2.728 -4.35,2.9 0.01,-1.926 -0.27,-4.14 0.73,-5.075 z"
     id="path9"
     inkscape:connector-curvature="0"
     style="fill-rule:evenodd" /><path
     d="m 105.85,10.875 c 4.709,4.233 9.159,8.725 15.95,10.875 -7.709,5.596 -11.432,-10.268 -18.85,-5.075 -1.11,-4.007 3.22,-2.582 2.9,-5.8 z"
     id="path11"
     inkscape:connector-curvature="0"
     style="fill-rule:evenodd" /><path
     d="m 126.88,15.225 c 5.917,2.52 -1.799,6.788 -4.35,5.8 -2.508,-1.453 -0.217,-2.686 0,-5.075 1.497,0.436 2.745,1.121 2.175,3.625 1.16,-1.016 1.85,-2.497 2.18,-4.35 z"
     id="path13"
     inkscape:connector-curvature="0"
     style="fill-rule:evenodd" /><path
     d="m 112.38,31.175 c -4.087,0.691 -9.33,-3.711 -11.6,-7.25 -1.517,0.417 -2.069,1.797 -4.351,1.45 -1.174,-1.703 1.514,-4.39 4.351,-4.35 2.12,5.12 7.26,7.235 11.6,10.15 z"
     id="path15"
     inkscape:connector-curvature="0"
     style="fill-rule:evenodd" /><path
     d="m 88.45,40.6 c 5.209,1.074 6.264,6.303 11.6,7.25 -3.073,2.239 -10.01,-3.268 -11.6,-7.25 z"
     id="path17"
     inkscape:connector-curvature="0"
     style="fill-rule:evenodd" /><path
     d="m 97.875,43.5 c 3.048,1.333 5.196,1.223 8.7,0.725 0.041,2.428 -5.67,4.914 -5.8,0.725 -1.082,1.142 -3.244,0.808 -2.905,-1.45 z"
     id="path19"
     inkscape:connector-curvature="0"
     style="fill-rule:evenodd" /><path
     d="m 65.25,49.3 c -1.664,2.231 0.179,2.322 2.175,1.45 0.306,3.721 -5.764,2.273 -5.075,-0.725 1.3,0.092 1.529,-0.887 2.9,-0.725 z"
     id="path21"
     inkscape:connector-curvature="0"
     style="fill-rule:evenodd" /><path
     d="m 78.3,52.2 c 4.444,2.564 7.63,6.387 11.601,9.425 0.825,2.06 -5.758,-0.887 -7.25,-2.175 -2.173,-1.874 -3.316,-5.6 -4.351,-7.25 z"
     id="path23"
     inkscape:connector-curvature="0"
     style="fill-rule:evenodd" /><path
     d="m 100.78,52.925 c -0.102,2.074 -3.024,1.326 -5.075,1.45 -0.586,-2.756 3.423,-0.922 5.075,-1.45 z"
     id="path25"
     inkscape:connector-curvature="0"
     style="fill-rule:evenodd" /><path
     d="m 91.35,67.425 c -0.657,2.932 -2.857,0.589 -4.35,0 -5.069,-2.001 -9.884,-6.834 -13.05,-10.875 -0.384,-0.583 -0.757,-1.177 -0.726,-2.175 1.383,-1.36 1.312,0.431 3.625,0 3.014,6.17 9.235,9.133 14.501,13.05 z"
     id="path27"
     inkscape:connector-curvature="0"
     style="fill-rule:evenodd" /><path
     d="m 58.725,150.08 c 3.028,0.838 4.803,7.827 1.45,8.7 -0.307,3.04 3.543,5.438 -0.725,6.524 0.817,-6.02 -3.117,-9.9 -0.725,-15.22 z"
     id="path29"
     inkscape:connector-curvature="0"
     style="fill-rule:evenodd" /><path
     d="m 88.45,158.05 c 1.978,-0.527 1.459,1.441 2.899,1.45 0.044,2.702 -0.73,4.586 -1.449,6.525 -2.629,-0.51 -1,-5.28 -1.45,-7.97 z"
     id="path31"
     inkscape:connector-curvature="0"
     style="fill-rule:evenodd" /><path
     d="m 4.35,158.78 c 2.404,0.254 1.138,4.179 1.45,6.524 -3.393,-0.32 -1.7,-4.12 -1.45,-6.52 z"
     id="path33"
     inkscape:connector-curvature="0"
     style="fill-rule:evenodd" /><path
     d="m 72.5,159.5 c 3.38,-0.646 2.745,6.235 0,5.8 v -5.8 z"
     id="path35"
     inkscape:connector-curvature="0"
     style="fill-rule:evenodd" /><path
     d="m 8.7,166.02 c 2.019,0.241 1.02,5.043 2.175,7.975 -1.479,0.455 -0.204,3.663 -2.9,2.9 0.067,-3.8 1.206,-6.53 0.725,-10.88 z"
     id="path37"
     inkscape:connector-curvature="0"
     style="fill-rule:evenodd" /><path
     d="m 59.45,166.75 c 1.11,2.015 3.825,8.148 0,8.7 v -8.7 z"
     id="path39"
     inkscape:connector-curvature="0"
     style="fill-rule:evenodd" /><path
     d="m 116.72,26.1 c 1.714,0.203 -0.831,1.937 -0.725,2.9 3.56,0.176 1.959,-4.807 6.525,-3.625 -0.023,4.65 -3.929,6.863 -7.25,4.35 -0.62,-2.313 1.15,-2.242 1.45,-3.625 z"
     id="path55"
     inkscape:connector-curvature="0"
     style="fill-rule:evenodd" /><path
     d="m 69.6,74.675 c 1.902,5.347 6.734,7.766 10.15,11.6 -4.882,0.04 -7.484,-8.459 -12.325,-10.875 1.135,6.598 7.282,8.184 10.15,13.05 -2.835,0.401 -5.476,-5.629 -8.7,-7.25 1.789,3.528 4.497,6.136 7.25,8.7 -1.868,1.11 -4.226,-3.483 -6.525,-4.35 1.094,2.531 2.658,4.592 5.075,5.8 -2.162,1.879 -3.577,-3.158 -5.8,-3.625 -0.092,1.3 0.888,1.529 0.725,2.9 -2.438,-2.793 -2.863,-5.919 -7.975,-7.25 3.31,5.433 6.648,10.03 14.5,12.325 1.867,-4.416 5.246,-7.32 7.25,-11.6 -0.198,-4.211 -2.566,-6.839 0,-10.15 4.399,1.159 9.009,2.108 10.15,6.525 1.926,-0.007 4.141,0.274 5.074,-0.725 0.063,-2.48 -4.413,-0.42 -4.35,-2.9 -1.499,-1.838 0.978,1.528 2.9,0.725 2.528,-0.611 -0.588,-3.319 2.899,-3.625 -0.63,-4.445 -6.561,-3.59 -7.25,-7.975 1.35,-7.592 9.843,-8.041 10.15,-16.675 1.539,-1.119 3.23,-2.086 5.075,-2.9 0.538,-6.712 6.607,-7.892 8.699,-13.05 9.784,1.817 13.866,11.77 16.676,18.125 3.124,8.784 2.101,20.651 0,25.375 -11.726,31.05 -28.697,56.853 -58,70.325 2.394,2.758 -1.205,4.164 -1.45,6.525 -1.486,-1.414 -0.933,-4.868 -2.175,-6.525 -2.641,-0.224 -4.718,0.115 -6.525,0.726 -0.231,-1.702 -2.244,-1.623 -2.9,-2.9 -6.943,-0.307 -9.682,-4.818 -15.225,-6.524 -1.852,-2.016 -2.726,-5.008 -7.25,-4.351 0.729,1.446 3.206,1.145 2.9,3.625 -6.873,8.11 -19.19,10.777 -29.725,15.226 -1.074,-4.119 4.458,-1.628 2.175,-5.075 1.44,0.009 0.922,1.978 2.9,1.45 -1.098,-5.142 -4.399,-2.782 -6.525,-4.351 -1.086,0.896 -4.44,3.228 -2.9,4.351 -0.455,1.479 -3.663,0.203 -2.9,2.899 1.031,0.907 2.754,-0.138 2.9,-1.45 1.474,4.514 -6.252,2.157 -8.7,4.351 9.034,-9.091 16.272,-19.978 21.75,-32.625 2.512,2.322 4.258,5.408 7.25,7.25 1.67,-2.191 -3.805,-3.418 -4.35,-5.8 0.049,-3.386 1.657,0.849 2.9,0.725 2.426,-1.517 -2.795,-2.725 -0.725,-3.625 4.81,1.232 5.146,6.938 9.425,8.7 0.712,-4.024 -3.663,-5.41 -5.8,-7.975 -1.694,-2.033 -3.231,-5.394 -5.075,-7.975 C 17.971,103.457 9.019,89.737 7.425,72.113 6.992,67.32 5.556,62.705 6.523,55.087 c 1.525,-12.018 9.995,-22.3 19.575,-25.375 11.132,-3.573 24.155,-0.369 31.9,3.625 2.92,1.506 4.733,3.184 8.217,4.684 1.533,1.685 1.419,0.906 2.658,2.566 4.981,-2.061 13.754,-11.855 21.025,-11.6 6.979,0.245 8.442,7.852 15.225,10.15 -4.586,1.431 -8.944,-3.613 -10.875,-7.25 -7.157,-1.399 -6.072,4.332 -6.525,7.975 -2.775,0.132 -0.258,-0.593 -0.72,-2.175 -2.729,0.412 -3.824,2.459 -5.075,4.35 2.461,6.239 6.31,11.091 12.325,13.775 -5.89,1.53 -9.787,-5.189 -11.6,-10.15 -3.393,-0.009 -4.387,2.381 -5.075,5.075 -7.773,1.249 -7.5,-5.55 -14.5,-5.075 -1.834,0.583 -1.849,2.984 -2.9,4.35 3.129,4.362 7.286,7.698 10.15,12.325 -2.731,4.761 -5.308,9.676 -10.15,12.325 -1.53,-3.545 -4.494,-5.656 -6.525,-8.7 -0.913,4.55 4.04,9.485 5.075,14.5 0.583,-0.383 1.177,-0.756 2.175,-0.725 -0.356,-3.057 4.639,-3.683 5.075,-7.975 1.522,1.146 3.517,2.516 2.175,-0.725 4.884,3.333 7.493,8.94 12.325,12.325 -4.445,0.809 -5.902,-7.623 -10.875,-8.7 z M 34.075,129.78 c -1.757,-1.627 -3.036,-3.731 -5.075,-5.075 0.709,2.22 3.354,6.28 5.075,5.08 z m 34.8,-46.405 C 66.326,82.542 66.22,79.264 63.8,78.3 c 0.956,1.972 3.191,6.438 5.075,5.075 z m -44.95,44.945 c 1.186,2.923 2.85,5.367 5.8,6.525 -1.115,-4.686 -5.026,-6.574 -7.975,-9.425 -1.664,1.6 0.179,2.9 2.175,2.9 z m 2.175,9.43 c -0.252,-2.914 -6.093,-4.024 -4.35,-6.524 1.945,0.271 3.209,4.951 5.075,2.899 -2.462,-1.646 -3.798,-4.419 -6.525,-5.8 -1.664,5.586 -5.084,9.416 -7.25,14.5 1.979,-0.528 1.459,1.44 2.9,1.45 0.957,-1.814 -2.867,-2.27 -0.725,-2.9 2.082,0.135 2.557,5.604 5.075,2.9 -0.952,-1.948 -3.196,-2.604 -4.35,-4.351 3.577,0.532 4.163,4.054 7.25,5.075 -0.008,-1.926 0.274,-4.141 -0.725,-5.075 -2.328,-0.603 -1.503,-0.617 -2.9,0.726 0.222,-1.672 -2.095,-0.806 -2.175,-2.175 2.913,-0.377 0.813,-1.768 2.175,-2.9 1.525,1.898 5.171,6.804 7.25,3.625 0.994,1.664 2.985,2.331 4.35,3.625 0.731,-3.631 -3.249,-2.552 -3.625,-5.075 -3.388,1.573 -6.316,-1.304 -7.25,-4.35 1.997,1.4 3.803,2.97 5.8,4.36 z m -2.9,10.15 c 0.218,-1.91 -1.004,-2.38 -2.9,-2.175 -0.218,1.92 1.004,2.38 2.9,2.18 z"
     id="path57"
     inkscape:connector-curvature="0"
     style="fill-rule:evenodd" /><path
     d="m 104.4,35.525 c 0.667,-1.267 2.267,-1.601 4.35,-1.45 0.092,1.3 -0.888,1.529 -0.725,2.9 4.108,-1.693 0.609,-0.556 4.35,0 -2.79,3.065 -5.76,-0.087 -7.97,-1.45 z"
     id="path59"
     inkscape:connector-curvature="0"
     style="fill-rule:evenodd" /><path
     d="m 71.05,67.425 c 3.32,-0.406 6.238,5.835 9.425,7.975 -3.692,0.778 -6.154,-5.919 -9.425,-7.975 z"
     id="path61"
     inkscape:connector-curvature="0"
     style="fill-rule:evenodd" /><path
     d="m 76.125,66.7 c 0.329,3.054 3.544,3.223 5.075,5.075 -4.184,1.75 -6.072,-5.033 -9.425,-6.525 3.501,-4.562 -4.396,-5.481 -4.35,-10.875 3.375,2.26 4.45,6.613 7.25,9.425 4.211,4.227 10.519,5.591 14.5,10.15 -5.928,-0.839 -7.983,-5.551 -13.05,-7.25 z"
     id="path63"
     inkscape:connector-curvature="0"
     style="fill-rule:evenodd" /><path
     d="m 69.6,68.875 c 3.716,3.775 8.312,6.672 10.875,11.6 -3.576,-3.44 -9.714,-8.16 -10.875,-11.6 z"
     id="path65"
     inkscape:connector-curvature="0"
     style="fill-rule:evenodd" /></g>
<metadata
   id="metadata67"><rdf:RDF><cc:Work><dc:format>image/svg+xml</dc:format><dc:type
         rdf:resource="http://purl.org/dc/dcmitype/StillImage" /><cc:license
         rdf:resource="http://creativecommons.org/licenses/publicdomain/" /><dc:publisher><cc:Agent
           rdf:about="http://openclipart.org/"><dc:title>Openclipart</dc:title></cc:Agent></dc:publisher><dc:title>knife through the heart</dc:title><dc:date>2007-10-10T00:09:01</dc:date><dc:description>The Biography of a Grizzly by Ernest Seton-Thompson (1900)</dc:description><dc:source>http://openclipart.org/detail/6760/knife-through-the-heart-by-johnny_automatic-6760</dc:source><dc:creator><cc:Agent><dc:title>johnny_automatic</dc:title></cc:Agent></dc:creator><dc:subject><rdf:Bag><rdf:li>blood</rdf:li><rdf:li>clip art</rdf:li><rdf:li>clipart</rdf:li><rdf:li>externalsource</rdf:li><rdf:li>heart</rdf:li><rdf:li>image</rdf:li><rdf:li>knife</rdf:li><rdf:li>media</rdf:li><rdf:li>png</rdf:li><rdf:li>public domain</rdf:li><rdf:li>stab</rdf:li><rdf:li>svg</rdf:li></rdf:Bag></dc:subject></cc:Work><cc:License
       rdf:about="http://creativecommons.org/licenses/publicdomain/"><cc:permits
         rdf:resource="http://creativecommons.org/ns#Reproduction" /><cc:permits
         rdf:resource="http://creativecommons.org/ns#Distribution" /><cc:permits
         rdf:resource="http://creativecommons.org/ns#DerivativeWorks" /></cc:License></rdf:RDF></metadata></svg>